<?xml version="1.0" encoding="utf-8"?>
<!-- Generator: Adobe Illustrator 19.2.1, SVG Export Plug-In . SVG Version: 6.00 Build 0)  -->
<svg version="1.1" id="Слой_1" xmlns="http://www.w3.org/2000/svg" xmlns:xlink="http://www.w3.org/1999/xlink" x="0px" y="0px"
	 viewBox="0 0 960 200" style="enable-background:new 0 0 960 200;" xml:space="preserve">
<style type="text/css">
	.st0{fill:#FF9400;}
	.st1{fill:#2594E9;}
	.st2{fill:#FF9400;stroke:#FF9400;stroke-miterlimit:10;}
</style>
<path class="st0" d="M28.8,34.4c0,0,1.9,32.5,20.4,50.1c0,0,65.9-75.2,98.4-65C147.6,19.5,85.4-26,28.8,34.4z"/>
<path class="st0" d="M24.2,43.8c0,0-1.9,22.1,21.4,50c0,0-11.2,6.5-21.4,50.1C24.1,143.9-11.1,95.9,24.2,43.8z"/>
<path class="st0" d="M28.8,151.4c0,0,47.3,57.6,118.8,16.7c0,0,1.2-1.5,3.7-3.7l-5.6-1.2c0,0-55.7,42.4-115.4-16.4L28.8,151.4z"/>
<path class="st1" d="M53.9,90.4c0,0,64.4-75.8,99.3-65.6c0,0,73.7,51.7,7.4,131.5c0,0-15.5,15.5-54.5-12.4
	C106.2,143.9,69.6,117.9,53.9,90.4z"/>
<path class="st0" d="M215.1,39.3v101.5c0,0,10.2,21.7,22.9,0c0,0,2.4-9.9-5.8-5.6c0,0-8.8,13.6-8.3-3.1l0.5-92.8
	C224.4,39.3,219.5,29.4,215.1,39.3z"/>
<circle class="st0" cx="265.5" cy="56.2" r="6"/>
<path class="st1" d="M578.4,73.7V82h-47.7c0,0-17.3,10.5,0,22.3h34.7c0,0,16.7,4.3,13,23.5c0,0,1.9,15.1-11.1,19.9H519
	c0,0-11.1-3.9,0-7.6h43.3c0,0,8.7-0.6,8.7-12.4c0,0,3.1-11.6-6.2-16.3h-37.8c0,0-13.6,0.2-13-19c0,0-2.5-14.9,14.9-19.5L578.4,73.7z
	"/>
<path class="st1" d="M590.2,73l34.7,0.7c0,0,21-4.1,28.5,18.8c0,0,5,18.6,0,35.9c0,0-6.2,19.5-24.1,19.3H597v51.9h-6.8v-58.8h35.3
	c0,0,18.6-1.9,19.8-16.7c0,0,3.7-14.2,0.6-24.8c0,0,0.3-17.9-23-19.2l-32.7-0.6V73z"/>
<path class="st1" d="M665.1,17v130.7h8V85.1h26c0,0,19.8,1.9,19.8,18.6v44.1h9.9v-44.1c0,0,3.1-23.5-29.1-27.2h-26V17H665.1z"/>
<path class="st1" d="M798.2,88.8c0,0-38.4-24.1-50.8,17.9h25.4c0,0,13,3.1,0,8h-25.4c0,0,5,39.9,50.8,21.5c0,0,10.5-5.9,3.7,4.8
	c0,0-8.8,8-26.1,8.2c0,0-37.7,1.6-37-37.8c0,0-2.7-29.6,32.7-38.5c0,0,15.8-2.8,32.7,12.1C804.2,85.1,808.2,93.4,798.2,88.8z"/>
<path class="st1" d="M939.9,88.8c0,0-38.4-24.1-50.8,17.9h25.4c0,0,13,3.1,0,8h-25.4c0,0,5,39.9,50.8,21.5c0,0,10.5-5.9,3.7,4.8
	c0,0-8.8,8-26.1,8.2c0,0-37.7,1.6-37-37.8c0,0-2.7-29.6,32.7-38.5c0,0,15.8-2.8,32.7,12.1C945.9,85.1,949.9,93.4,939.9,88.8z"/>
<path class="st1" d="M816.7,147.8V96.3c0,0-6.2-32.1,56.3-22.6c0,0,7.4,3.5,0,8.7c0,0-46.4-10.3-48.3,13.2l-0.6,52.1
	C824.2,147.8,816.7,151.6,816.7,147.8z"/>
<path class="st2" d="M285.7,112.7c0,0-2.5-9.6,6.2-6.5l27.2,29.4V81.7c0,0,2.8-8.7,8,0v64.7c0,0-1.9,6.2-5.6,0L285.7,112.7z"/>
<g>
	<path class="st0" d="M349.4,47.6v100.6c0,0,3.7,8,8.4,0v-18.9l12.1-11.8l30.9,31.9c0,0,8.4,4,5.3-2.2l-31.9-33.7L403,85.7
		c0,0,2.8-6.2-5-3.7l-40.5,39V47.6C357.5,47.6,353.5,39,349.4,47.6z"/>
	<path class="st0" d="M354.1,122.9L395.2,82c0,0,12.2-5.4,6.2,2.8c-6,8.2-47.3,43.6-47.3,43.6V122.9z"/>
	<path class="st0" d="M372.3,110.2l34.4,35.3c0,0,1.7,8.4-3.7,3.4c-5.4-5-33.5-36.1-33.5-36.1L372.3,110.2z"/>
</g>
<path class="st0" d="M260.6,76v68.1c0,0,4.7,11.1,10,0V76C270.5,76,265.8,66.1,260.6,76z"/>
<circle class="st0" cx="428.6" cy="56.2" r="6"/>
<path class="st2" d="M449.9,112.7c0,0-2.5-9.6,6.2-6.5l27.2,29.4V81.7c0,0,2.8-8.7,8,0v64.7c0,0-1.9,6.2-5.6,0L449.9,112.7z"/>
<path class="st0" d="M423.7,76v68.1c0,0,4.7,11.1,10,0V76C433.6,76,428.9,66.1,423.7,76z"/>
</svg>
