<?xml version="1.0" encoding="utf-8"?>
<!-- Generator: Adobe Illustrator 19.2.0, SVG Export Plug-In . SVG Version: 6.00 Build 0)  -->
<svg version="1.1" id="Слой_1" xmlns="http://www.w3.org/2000/svg" xmlns:xlink="http://www.w3.org/1999/xlink" x="0px" y="0px"
	 viewBox="0 0 75 75" style="enable-background:new 0 0 75 75;" xml:space="preserve">
<style type="text/css">
	.st0{fill:none;stroke:#FFFFFF;stroke-miterlimit:10;enable-background:new    ;}
	.st1{fill:#FFFFFF;stroke:#FFFFFF;stroke-miterlimit:10;}
</style>
<path class="st0" d="M37.8,0.5L37.8,0.5c20.7,0,36.7,16.3,36.7,37l0,0c0,20.7-16,37-36.7,37l0,0c-20.7,0-37.3-16.3-37.3-37l0,0
	C0.5,16.8,17.1,0.5,37.8,0.5z"/>
<g>
	<path class="st1" d="M24.4,39l7.8-21c0,0,0.2-1.8,2.9-1.2c2.6,0.6,23,4.8,23,4.8s2.5,0.6,1.7,3.3L52,47.7c0,0-4.2,11.5-8.5,12.1
		c0,0-4.1,0.9-12.5-2.9l-9.4-4.4c0,0-5-1.3-4.8-7.9c0,0,0-1.6,0.7-2.5l18.8,7.5c0,0-1.5,5.1,2.9,6.7c0,0,4,1.9,6.8-3.6l10.3-28.1
		L35,20.1L27.8,40c0,0-0.9,2.2-2.7,2.1C25.1,42.1,23.3,41.9,24.4,39z"/>
	<circle class="st1" cx="36.4" cy="28.5" r="1.6"/>
	<circle class="st1" cx="31.6" cy="41.3" r="1.6"/>
	<ellipse transform="matrix(0.2324 -0.9726 0.9726 0.2324 -7.6481 59.8722)" class="st1" cx="34.1" cy="34.8" rx="1.6" ry="1.6"/>
	<path class="st1" d="M42.5,28.3l7,1.6c0,0,2.4,0.3,1.5,1.8c0,0,0.2,0.9-2.1,0.5l-7.1-1.7c0,0-1.9-0.3-1.3-1.5
		C40.5,29.1,40.6,27.9,42.5,28.3z"/>
	<path class="st1" d="M39.8,35l7,1.6c0,0,2.4,0.3,1.5,1.8c0,0,0.2,0.9-2.1,0.5l-7.1-1.7c0,0-1.9-0.3-1.3-1.5
		C37.8,35.7,38,34.6,39.8,35z"/>
	<path class="st1" d="M37.1,42l7,1.6c0,0,2.4,0.3,1.5,1.8c0,0,0.2,0.9-2.1,0.5l-7.1-1.7c0,0-1.9-0.3-1.3-1.5
		C35.1,42.7,35.2,41.6,37.1,42z"/>
</g>
</svg>
