<?xml version="1.0" encoding="utf-8"?>
<!-- Generator: Adobe Illustrator 19.2.0, SVG Export Plug-In . SVG Version: 6.00 Build 0)  -->
<svg version="1.1" id="Слой_1" xmlns="http://www.w3.org/2000/svg" xmlns:xlink="http://www.w3.org/1999/xlink" x="0px" y="0px"
	 viewBox="0 0 75 75" style="enable-background:new 0 0 75 75;" xml:space="preserve">
<style type="text/css">
	.st0{fill:none;stroke:#FFFFFF;stroke-miterlimit:10;enable-background:new    ;}
	.st1{fill:none;stroke:#FFFFFF;stroke-miterlimit:10;}
	.st2{fill:#FFFFFF;stroke:#FFFFFF;stroke-miterlimit:10;}
</style>
<path class="st0" d="M37.8,0.5L37.8,0.5c20.7,0,36.7,16.3,36.7,37l0,0c0,20.7-16,37-36.7,37l0,0c-20.7,0-37.3-16.3-37.3-37l0,0
	C0.5,16.8,17.1,0.5,37.8,0.5z"/>
<path class="st1" d="M60,36.5c0,12.2-9.8,22-22,22s-22-9.8-22-22c0-10.1,6.9-18.7,16.2-21.2c1.9-0.5,3.8-0.8,5.8-0.8
	C50.2,14.5,60,24.3,60,36.5z"/>
<path class="st2" d="M30.6,17l-1.5,1.6l-0.6,1.3h-1.1v1v0.8v1h1.4l1-1.1h0.6l0.5-1.9l1.3-0.7l1-0.7h0.7l0.4-0.5h0.9l0.5-0.4l0.5-0.3
	l0.4,0.1l0.3,0.6l1,0.3H38l1.3-0.3l0.4,0.2l0.4-0.5l1.4,0.9l0.7-0.8l0.2-0.6l0.8,1.3l1.5,0.5v0.5l1-0.1h0.9v0.3c0,0-0.5,0.1-0.8,0.3
	s-0.5,1.4-0.5,1.4l0.9-0.1l0.8,0.7l0.3,0.8l0.5,0.7l0.9,0.6l1,0.6l0.3-0.3l0.1-0.9l-0.8-0.9l-0.8-0.9l0.2-1l0.8-0.1l1.7,2.3
	l-0.6,1.1l0.9,1l-0.1,0.5L50.3,25l-0.9-0.1l1,1.8v0.8l0.3,1.9l0.2-1.5l0.2-1.2h0.6l0.4-0.1l0.1,1.7h0.3l0.5-0.1v1.1l0.8,1.4l0.3,0.2
	l0.6,0.4h0.5l0.5,0.7v1.4c0,0-0.1,1.1,0,1.2s0.5,1.3,0.5,1.3l0.2,1.3l0.3,1.6l1.2,1.1c0,0,1,0.7,1.2-0.4s0-2.2,0-2.2l0.2-0.9
	l0.3-1.8L58.9,34l-1.1-2.3l0.1-0.8L56.7,30c0,0-0.3-0.2-0.6-0.3s-1-0.1-1-0.1l-0.8-1.4l0.2-1.1l-1-0.3l0.8-0.9c0,0,1.1,0.3,0.9-0.3
	s-0.7-1.4-0.7-1.4L54,22.9l-0.4-0.5L54,22l1.8,2.9l2.3,4.3l1.9,5.6v3.5c0,0-0.4,3.8-1.3,5.9c-0.9,2.1-3.4,6.6-5.7,8.5
	c-2.4,1.9-4.8,3.4-4.8,3.4l3.5-3.4l0.5-1.1c0,0,0.1,1.2,0.7-0.5s1.1-1.6,1.1-1.6l-4.8,0.8l-0.8-0.6h-1.8l-2-0.8l-2.8,0.5l-1.5-0.6
	L38,49.9l0.7,1.6L37.2,53l1.7,2.1l1.8,2.1l0.3,0.6v0.5c0,0-9.6,0.3-15.7-3.9s-6.4-8.4-6.1-9.1s-1.1-0.1-1.1-0.1l0.6-2l-0.9-0.4
	L17.6,43l-1.3-4.7L16,36.8v-0.3l0.2-3.1l0.1-0.6l0.3-1.5l0.3-1l2.6-5.6l2.4-2.4l3.8-3.5l0.5,1.7l-0.3,4.4l1.8-1.4l-1.3,2.3l1.6,1
	l0.3,1.4l-0.1,1l-0.3,1.4l-0.1,0.9L27.5,33l-1.4,1.8v1l0.1,2.1v0.9L27,40l0.3,1.9l1,1.3l1,1.9h2l0.3,0.9l0.8,1.3l1.1,0.3l0.6,1.4
	l3-0.9l0.1,1.1l0.1,1.5l0.8-3.3L37,47l-1.6-0.1l-0.9-0.1l0.1-1l-1-0.1c0,0-0.9,0.5-1,0s-0.1-0.5-0.1-0.5l-0.6-1.6c0,0-1.1-1.8,0-2
	c1.1-0.2-0.3-1.6,1.1-0.3c1.4,1.3,1.4,1.3,1.4,1.3l0,0c0,0,0.1,0.4,1,0s0.9-0.4,0.9-0.4l0.6,0.1l0.5,0.9l0.6-0.3v-1.3l0.5-1.3
	c0,0,1.1-0.4,1.1-0.8s0-0.4,0-0.4s-2-1.5,0.1-2.8s0.8-1,0.8-1l1.4-0.3l-0.3-1.8l1.6,0.9l0.8,1.1l1.3-0.9l0.3-1.5H44
	c0,0-0.1-0.1-1.1-0.8s0-0.3-1-0.6s-1-0.4-1-0.4l0,0l-1-0.6L38.5,30c0,0-0.6-0.3-0.5,0.9s0.1,1.1,0.1,1.1L38,32.6l-0.6,0.5l-0.8-1
	L35.8,32l-0.3-1.8l0.9-1.3l1.6-0.4L37.4,27c-0.9-0.1-1,0.6-0.9-0.1s0.1-0.8,0.1-0.8l2.6,1.1l1.4,1.4l0.9-0.1l0.4-1v-1.3l0.9,1.5
	l0.6,2l0.9,0.1l0.5-0.8l-0.3-1l-0.1-0.8v-1.4l-0.6-1.6L43.1,23c-1.8,0-0.8,0-1.8,0s-1,0-1,0h-1.1l-0.8,0.4L38,24v1.1h1.4l0.6,0.1
	l0.8,0.5l0.5,0.8l-1.1,0.9l-2.9-1.8l-1.4,0.1l-0.4,1.1l-1.1-1l-0.2-1L34,24.3l-0.4,1.5c0,0,0.1,1.6-1.4,0.5
	c-1.5-1.1-1.1,0.8-1.5-1.1s-0.4-1.9-0.4-1.9l0,0c0,0-0.5-0.1-1.3,0.1s-0.8,0.3-0.8,0.3l0,0l-1.8-1.3L30.6,17z"/>
</svg>
