<?xml version="1.0" encoding="utf-8"?>
<!-- Generator: Adobe Illustrator 19.2.0, SVG Export Plug-In . SVG Version: 6.00 Build 0)  -->
<svg version="1.1" id="Слой_1" xmlns="http://www.w3.org/2000/svg" xmlns:xlink="http://www.w3.org/1999/xlink" x="0px" y="0px"
	 viewBox="0 0 75 75" style="enable-background:new 0 0 75 75;" xml:space="preserve">
<style type="text/css">
	.st0{fill:none;stroke:#FFFFFF;stroke-miterlimit:10;enable-background:new    ;}
	.st1{fill:#FFFFFF;stroke:#FFFFFF;stroke-miterlimit:10;}
	.st2{fill:#FFFFFF;}
</style>
<path class="st0" d="M37.8,0.5L37.8,0.5c20.7,0,36.7,16.3,36.7,37l0,0c0,20.7-16,37-36.7,37l0,0c-20.7,0-37.3-16.3-37.3-37l0,0
	C0.5,16.8,17.1,0.5,37.8,0.5z"/>
<path class="st1" d="M20.6,40.2l-3.7-6.3l31.8-17.3l9,16.4h-6.8l1.8-1.4l0.4-1.3l-3.9-6.8c0,0-2.8,2.7-5.1-0.9L24.7,33.3
	c0,0-4.2-1.7-4,3.7L20.6,40.2z"/>
<path class="st2" d="M32.3,33h11.9c0,0-1.1-4.5-6-4.3C33.4,28.8,32.3,33,32.3,33z"/>
<circle class="st2" cx="47.3" cy="29.5" r="1.9"/>
<circle class="st2" cx="30.8" cy="46.1" r="1.9"/>
<circle class="st2" cx="51.8" cy="46.1" r="1.9"/>
<ellipse class="st2" cx="41.3" cy="46.1" rx="6.8" ry="5.3"/>
<path class="st2" d="M40.7,54.3V57V54.3z"/>
<g>
	<path class="st2" d="M32.2,54.2c0,0-2.3,0.6-2.3-1.7c0,0,0.4-1.8-2.4-1.8c0,0-1.6,0.3-1.6-1.2V43c0,0-0.3-1.1,1.9-1.3
		c0,0,2.2,0.1,2.1-1.6c0,0-0.2-1.9,1.9-1.9h9.7l-0.1-2.8H23.5v21.4h18.3L32.2,54.2z"/>
	<polyline class="st2" points="32.2,54.2 41.8,54.3 41.8,56.9 	"/>
</g>
<g>
	<path class="st2" d="M50.6,54.2c0,0,2.2,0.6,2.2-1.7c0,0-0.4-1.8,2.3-1.8c0,0,1.6,0.3,1.6-1.2V43c0,0,0.3-1.1-1.9-1.3
		c0,0-2.2,0.1-2.1-1.6c0,0,0.2-1.9-1.9-1.9h-9.5l0.1-2.8H59v21.4H41.3L50.6,54.2z"/>
	<polyline class="st2" points="50.6,54.2 41.3,54.3 41.3,56.9 	"/>
</g>
</svg>
