<?xml version="1.0" encoding="utf-8"?>
<!-- Generator: Adobe Illustrator 19.2.0, SVG Export Plug-In . SVG Version: 6.00 Build 0)  -->
<svg version="1.1" id="Слой_1" xmlns="http://www.w3.org/2000/svg" xmlns:xlink="http://www.w3.org/1999/xlink" x="0px" y="0px"
	 viewBox="0 0 75 75" style="enable-background:new 0 0 75 75;" xml:space="preserve">
<style type="text/css">
	.st0{fill:none;stroke:#FFFFFF;stroke-miterlimit:10;enable-background:new    ;}
	.st1{fill:#FFFFFF;stroke:#FFFFFF;stroke-miterlimit:10;}
	.st2{fill:none;stroke:#FFFFFF;stroke-miterlimit:10;}
	.st3{fill:none;stroke:#FFFFFF;stroke-width:3;stroke-miterlimit:10;}
</style>
<path class="st0" d="M37.8,0.5L37.8,0.5c20.7,0,36.7,16.3,36.7,37l0,0c0,20.7-16,37-36.7,37l0,0c-20.7,0-37.3-16.3-37.3-37l0,0
	C0.5,16.8,17.1,0.5,37.8,0.5z"/>
<path class="st1" d="M26.3,32c0,0-3.1-0.9-3,3.1v16.1c0,0-0.7,3.5,3,3.3v2.6c0,0-5.8,1.4-5.8-5.9V35c0,0-0.9-5.5,5.8-5.8
	C26.3,29.2,26.3,32,26.3,32z"/>
<path class="st1" d="M26.3,32c0,0,2-0.9,1.9,3.1v16.1c0,0,0.5,3.5-1.9,3.3v2.6c0,0,3.7,1.4,3.7-5.9V35c0,0,0.6-5.5-3.7-5.7V32z"/>
<circle class="st2" cx="25.8" cy="51.4" r="0.9"/>
<path class="st3" d="M29,31.9c0,0,7.8-0.5,9.1-8.6c0,0,0.6-11.8,7.1-1.9c0,0,1.6,4,0,9.3L55.6,31c0,0,3.8-1,4.4,3.9
	c0,0-0.3,3-5.9,2.6H57c0,0,2.8,1.1,2,3.5c0,0-0.1,2.8-6,2.8c0,0,6-0.4,4.1,4.4c0,0-0.9,2.4-5.7,2.1c0,0,5.9,0.1,3.1,4.4
	c0,0-0.3,1.4-7.8,1.1c0,0-11.3,0.1-17.8-3.3L29,31.9L29,31.9z"/>
<path class="st1" d="M53.6,36.6c0,0-1.5,0.7,0,1.4V36.6z"/>
<path class="st1" d="M52.4,43c0,0-1.5,0.8,0.1,1.4L52.4,43z"/>
<path class="st1" d="M50.9,49.5c0,0-1.5,0.7,0,1.4V49.5z"/>
</svg>
